<svg xmlns="http://www.w3.org/2000/svg"  viewBox="0 0 50 50" width="50px" height="50px"><path d="M8.205 12.447C5.577 15.954 4 20.291 4 25c0 11.579 9.421 21 21 21 4.709 0 9.046-1.577 12.553-4.205L8.205 12.447zM47.707 46.293l-7.185-7.185C44.048 35.235 46 30.272 46 25c0-11.579-9.421-21-21-21-5.265 0-10.235 1.952-14.109 5.477L3.707 2.293C3.52 2.098 3.262 1.992 2.992 1.992c-.41 0-.773.246-.93.621C1.91 2.992 2 3.422 2.293 3.707l44 44c.25.262.625.367.973.273.352-.09.625-.363.715-.715C48.074 46.918 47.969 46.543 47.707 46.293z"/></svg>