<svg xmlns="http://www.w3.org/2000/svg"  viewBox="0 0 50 50" width="50px" height="50px"><path d="M 25.5 0 C 23.302666 0 21.5 1.8026661 21.5 4 C 21.5 6.1966602 23.302264 8 25.5 8 C 27.15 8 28.716234 7.1379996 29.970703 6.3457031 C 31.225173 5.5534067 32.150391 4.7597656 32.150391 4.7597656 L 33.037109 4 L 32.150391 3.2402344 C 32.150391 3.2402344 31.225173 2.4465933 29.970703 1.6542969 C 28.716234 0.86200038 27.15 -2.9605947e-16 25.5 0 z M 25.5 2 C 26.35 2 27.783766 2.6379996 28.904297 3.3457031 C 29.42288 3.6732294 29.465145 3.7430023 29.804688 4 C 29.465145 4.2569977 29.42288 4.3267706 28.904297 4.6542969 C 27.783766 5.3620004 26.35 6 25.5 6 C 24.383736 6 23.5 5.1153398 23.5 4 C 23.5 2.8833339 24.383334 2 25.5 2 z M 22.832031 10 C 21.017007 10 19.377911 11.093123 18.679688 12.767578 L 14.191406 23.537109 A 1.0001 1.0001 0 0 0 14.191406 23.539062 C 13.666344 24.802184 14.275616 26.27979 15.539062 26.806641 C 15.851975 26.937096 16.180153 27 16.5 27 C 17.481094 27 18.411783 26.413284 18.808594 25.460938 A 1.0001 1.0001 0 0 0 18.814453 25.447266 L 21.316406 19.183594 L 21.613281 20.109375 A 1.0001 1.0001 0 0 0 21.625 20.146484 C 21.806622 20.647601 21.778517 21.199337 21.546875 21.695312 C 20.748339 23.403855 20.063115 25.527501 20.025391 28.769531 L 19.953125 29 L 17 29 A 1.0001 1.0001 0 0 0 16.117188 29.529297 L 8.1171875 44.529297 L 8.1191406 44.529297 A 1.0001 1.0001 0 0 0 8 45 L 8 49 A 1.0001 1.0001 0 0 0 9 50 L 41 50 A 1.0001 1.0001 0 0 0 42 49 L 42 45 A 1.0001 1.0001 0 0 0 41.880859 44.529297 L 41.882812 44.529297 L 33.882812 29.529297 A 1.0001 1.0001 0 0 0 33 29 L 31 29 A 1.0001 1.0001 0 0 0 30.998047 28.933594 C 31.337621 27.882422 31.256247 26.756628 30.974609 25.642578 C 31.641677 25.590158 32.286691 25.281558 32.732422 24.724609 A 1.0001 1.0001 0 0 0 32.734375 24.722656 L 36.453125 20.060547 C 37.242465 19.072631 37.162785 17.627629 36.267578 16.732422 L 30.853516 11.318359 C 30.008875 10.473718 28.866412 10 27.671875 10 L 22.832031 10 z M 22.832031 12 L 27.671875 12 C 28.347338 12 28.962094 12.255063 29.439453 12.732422 L 34.853516 18.146484 C 35.040309 18.333277 35.055284 18.606416 34.890625 18.8125 A 1.0001 1.0001 0 0 0 34.888672 18.8125 L 31.171875 23.474609 C 30.992982 23.698139 30.691477 23.733282 30.46875 23.554688 A 1.0001 1.0001 0 0 0 30.46875 23.552734 C 30.242773 23.371813 30.21012 23.077026 30.390625 22.851562 A 1.0001 1.0001 0 0 0 30.392578 22.849609 L 33.273438 19.234375 A 1.0001 1.0001 0 0 0 33.197266 17.904297 L 30.53125 15.238281 A 1.0001 1.0001 0 0 0 30.189453 15.005859 C 29.56261 14.465613 28.730992 14.249618 27.910156 14.248047 C 27.09681 14.246447 26.274903 14.582247 25.490234 14.986328 C 24.709259 14.586909 23.892778 14.244964 23.076172 14.277344 C 22.151357 14.314011 21.174473 14.718965 20.650391 15.572266 A 1.0001 1.0001 0 0 0 20.494141 15.857422 L 20.492188 15.863281 A 1.0001 1.0001 0 0 0 20.476562 15.902344 L 16.960938 24.695312 C 16.877118 24.893102 16.691965 25 16.5 25 C 16.43647 25 16.373129 24.987907 16.308594 24.960938 C 16.042044 24.849788 15.928125 24.57352 16.039062 24.306641 L 16.037109 24.306641 L 20.525391 13.537109 C 20.917167 12.597564 21.813055 12 22.832031 12 z M 27.90625 16.248047 C 28.247024 16.248699 28.355937 16.372105 28.544922 16.462891 L 27.478516 19.474609 C 27.126941 20.468306 27.176104 21.568622 27.636719 22.527344 C 28.136887 23.569727 28.690033 24.834641 29.003906 25.980469 C 29.250336 26.880084 29.176915 27.484154 29.083984 28 L 26.167969 28 A 1.0001 1.0001 0 0 0 25.841797 28 L 25.273438 28 A 1.0001 1.0001 0 0 0 24.957031 28 L 22.103516 28 C 22.2348 25.588225 22.703579 23.946105 23.359375 22.542969 C 23.807738 21.582944 23.872238 20.475727 23.505859 19.464844 L 22.572266 16.541016 C 22.70191 16.423378 22.7938 16.289685 23.154297 16.275391 C 23.667447 16.255041 24.369721 16.44057 24.949219 16.822266 A 1.0001 1.0001 0 0 0 26.050781 16.822266 C 26.630279 16.44057 27.334024 16.246952 27.90625 16.248047 z M 30.212891 17.746094 L 31.152344 18.685547 L 29.269531 21.048828 C 29.233551 20.747849 29.260103 20.439724 29.365234 20.142578 L 30.212891 17.746094 z M 21.736328 30 L 23.761719 30 L 20.947266 39.316406 C 20.80503 39.743624 20.414857 40.001953 20 40.001953 C 19.894762 40.001953 19.792206 39.984619 19.6875 39.949219 A 1.0001 1.0001 0 0 0 19.683594 39.949219 C 19.147466 39.770169 18.872389 39.219281 19.050781 38.683594 A 1.0001 1.0001 0 0 0 19.056641 38.662109 L 21.736328 30 z M 27 30 L 29 30 L 29 39 C 29 39.56503 28.56503 40 28 40 C 27.43497 40 27 39.56503 27 39 L 27 30 z M 17.599609 31 L 19.333984 31 L 17.152344 38.050781 C 17.152344 38.050781 17.152344 38.052734 17.152344 38.052734 C 16.634603 39.611076 17.490397 41.321308 19.046875 41.84375 C 19.046875 41.84375 19.048828 41.84375 19.048828 41.84375 C 19.363525 41.949912 19.685866 42.001953 20 42.001953 C 21.259143 42.001953 22.429939 41.198001 22.845703 39.949219 A 1.0001 1.0001 0 0 0 22.853516 39.921875 L 25 32.814453 L 25 39 C 25 40.64497 26.35503 42 28 42 C 29.64497 42 31 40.64497 31 39 L 31 31 L 32.400391 31 L 39.332031 44 L 10.667969 44 L 17.599609 31 z M 10 46 L 40 46 L 40 48 L 10 48 L 10 46 z"/></svg>