<?xml version="1.0"?><svg xmlns="http://www.w3.org/2000/svg"  viewBox="0 0 128 128" width="128px" height="128px">    <path d="M 38 21 C 25.3 21 15 31.3 15 44 L 15 64 C 15 65.7 16.3 67 18 67 C 19.7 67 21 65.7 21 64 L 21 44 C 21 34.6 28.6 27 38 27 C 39.7 27 41 25.7 41 24 C 41 22.3 39.7 21 38 21 z M 90 21 C 88.3 21 87 22.3 87 24 C 87 25.7 88.3 27 90 27 C 99.4 27 107 34.6 107 44 L 107 64 C 107 65.7 108.3 67 110 67 C 111.7 67 113 65.7 113 64 L 113 44 C 113 31.3 102.7 21 90 21 z M 32 71 C 19.3 71 9 81.3 9 94 C 9 106.7 19.3 117 32 117 C 44.7 117 55 106.7 55 94 L 55 90 C 55 85 59 81 64 81 C 69 81 73 85 73 90 L 73 94 C 73 106.7 83.3 117 96 117 C 108.7 117 119 106.7 119 94 C 119 81.3 108.7 71 96 71 C 87.8 71 80.6 75.300781 76.5 81.800781 C 73.8 77.700781 69.2 75 64 75 C 58.8 75 54.2 77.700781 51.5 81.800781 C 47.4 75.300781 40.2 71 32 71 z M 32 77 C 41.4 77 49 84.6 49 94 C 49 103.4 41.4 111 32 111 C 22.6 111 15 103.4 15 94 C 15 84.6 22.6 77 32 77 z M 96 77 C 105.4 77 113 84.6 113 94 C 113 103.4 105.4 111 96 111 C 86.6 111 79 103.4 79 94 C 79 84.6 86.6 77 96 77 z"/></svg>