<svg xmlns="http://www.w3.org/2000/svg"  viewBox="0 0 60 53" width="60px" height="60px"><path d="M 51.029297 0 C 46.618297 0 43.029297 4.037 43.029297 9 C 43.029297 9.288 43.055563 9.585625 43.101562 9.890625 C 39.042562 8.652625 34.563297 8 30.029297 8 C 25.987297 8 22.086391 8.52 18.400391 9.5 C 17.184391 6.271 14.338297 4 11.029297 4 C 6.6182969 4 3.0292969 8.037 3.0292969 13 C 3.0292969 14.289 3.5345781 15.770859 4.2675781 17.255859 C 1.5015781 20.191859 0.029296875 23.543 0.029296875 27 C 0.029296875 36.198 10.287375 44.000969 24.484375 45.667969 C 27.035375 49.354969 30.099359 52.482125 30.318359 52.703125 C 30.506359 52.893125 30.762297 53 31.029297 53 C 31.296297 53 31.552234 52.894125 31.740234 52.703125 C 31.966234 52.475125 35.198062 49.174563 37.789062 45.351562 C 50.902062 43.148563 60.029297 35.648 60.029297 27 C 60.029297 23.428 58.467156 19.984328 55.535156 16.986328 C 57.309156 14.462328 59.029297 11.4 59.029297 9 C 59.029297 4.037 55.440297 0 51.029297 0 z M 51.029297 4 C 53.235297 4 55.029297 5.794 55.029297 8 C 55.029297 10.206 53.235297 12 51.029297 12 C 48.823297 12 47.029297 10.206 47.029297 8 C 47.029297 5.794 48.823297 4 51.029297 4 z M 51.029297 6 A 2 2 0 0 0 51.029297 10 A 2 2 0 0 0 51.029297 6 z M 11.029297 8 C 13.235297 8 15.029297 9.794 15.029297 12 C 15.029297 14.206 13.235297 16 11.029297 16 C 8.8232969 16 7.0292969 14.206 7.0292969 12 C 7.0292969 9.794 8.8232969 8 11.029297 8 z M 30.029297 9.9980469 C 34.853297 9.9980469 39.602875 10.764844 43.796875 12.214844 C 44.592875 14.143844 45.74375 15.923469 46.96875 17.605469 C 47.51075 18.348469 48.074203 19.074156 48.658203 19.785156 C 49.158203 20.395156 49.674297 21.182734 50.279297 21.677734 C 50.555297 21.902734 50.921531 22.04475 51.269531 21.96875 C 51.816531 21.84975 52.259375 21.132562 52.609375 20.726562 C 53.205375 20.035563 53.784797 19.329422 54.341797 18.607422 C 56.758797 21.168422 58.029297 24.052 58.029297 27 C 58.030297 34.271 50.407375 40.687734 39.234375 43.052734 C 39.337375 42.868734 39.409906 42.700484 39.503906 42.521484 C 40.967906 39.728484 41.461906 36.844984 40.378906 33.833984 C 39.507906 31.412984 37.764422 29.317375 35.482422 28.109375 C 34.113422 27.385375 32.578297 27 31.029297 27 C 25.603297 27 21.338828 31.676172 21.048828 36.951172 C 20.920828 39.289172 21.9105 41.483938 23.0625 43.460938 C 10.7545 41.547938 2.0292969 34.82 2.0292969 27 C 2.0292969 24.243 3.15025 21.530797 5.28125 19.091797 C 7.24325 22.315797 9.8419219 25.188688 10.294922 25.679688 C 10.462922 25.861687 10.694453 25.957469 10.939453 25.980469 C 10.970453 25.983469 10.997297 26 11.029297 26 C 11.308297 26 11.575625 25.884687 11.765625 25.679688 C 12.509625 24.873688 19.029297 17.674 19.029297 13 C 19.029297 12.715 19.015234 12.430484 18.990234 12.146484 C 18.980234 12.024484 18.962266 11.906156 18.947266 11.785156 C 18.932266 11.660156 18.922344 11.533203 18.902344 11.408203 C 22.421344 10.471203 26.160297 9.9980469 30.029297 9.9980469 z M 11.029297 10 A 2 2 0 0 0 11.029297 14 A 2 2 0 0 0 11.029297 10 z M 31.029297 32 C 33.786297 32 36.029297 34.243 36.029297 37 C 36.029297 39.757 33.786297 42 31.029297 42 C 28.272297 42 26.029297 39.757 26.029297 37 C 26.029297 34.243 28.272297 32 31.029297 32 z M 31.029297 34 A 3 3 0 0 0 31.029297 40 A 3 3 0 0 0 31.029297 34 z"/></svg>