<svg xmlns="http://www.w3.org/2000/svg"  viewBox="0 0 32 32" width="50px" height="50px"><path d="M25.2,6.9c-0.3,0-0.6-0.2-0.7-0.5l-0.3-0.9h-0.9c-0.4,0-0.8-0.3-0.8-0.8S22.8,4,23.3,4h1.5c0.3,0,0.6,0.2,0.7,0.5L25.9,6 c0.1,0.4-0.1,0.8-0.5,0.9C25.3,6.9,25.2,6.9,25.2,6.9z"/><path d="M20.4,5.5h-2.9c-0.4,0-0.8-0.3-0.8-0.8S17,4,17.5,4h2.9c0.4,0,0.8,0.3,0.8,0.8S20.8,5.5,20.4,5.5z M14.6,5.5h-2.9 c-0.4,0-0.8-0.3-0.8-0.8S11.2,4,11.6,4h2.9c0.4,0,0.8,0.3,0.8,0.8S15,5.5,14.6,5.5z"/><path d="M6.8,6.9c-0.1,0-0.1,0-0.2,0C6.2,6.8,6,6.4,6.1,6l0.4-1.4C6.6,4.2,6.9,4,7.3,4h1.5c0.4,0,0.8,0.3,0.8,0.8S9.2,5.5,8.8,5.5 H7.8L7.6,6.4C7.5,6.7,7.2,6.9,6.8,6.9z"/><path d="M2,23.8c-0.1,0-0.1,0-0.2,0c-0.4-0.1-0.6-0.5-0.5-0.9L2.1,20c0.1-0.4,0.5-0.6,0.9-0.5c0.4,0.1,0.6,0.5,0.5,0.9l-0.8,2.8 C2.6,23.5,2.3,23.8,2,23.8z M3.6,18.2c-0.1,0-0.1,0-0.2,0C3,18,2.8,17.6,2.9,17.2l0.8-2.8c0.1-0.4,0.5-0.6,0.9-0.5 C5,14,5.2,14.4,5.1,14.8l-0.8,2.8C4.2,17.9,3.9,18.2,3.6,18.2z M5.2,12.5c-0.1,0-0.1,0-0.2,0c-0.4-0.1-0.6-0.5-0.5-0.9l0.8-2.8 c0.1-0.4,0.5-0.6,0.9-0.5c0.4,0.1,0.6,0.5,0.5,0.9L5.9,12C5.8,12.3,5.5,12.5,5.2,12.5z"/><path d="M2.3,28H0.8c-0.2,0-0.5-0.1-0.6-0.3C0,27.5,0,27.3,0,27l0.4-1.4C0.6,25.2,1,25,1.4,25.1C1.8,25.2,2,25.6,1.9,26l-0.1,0.5 h0.5c0.4,0,0.8,0.3,0.8,0.8S2.7,28,2.3,28z"/><path d="M26.7,28h-3.1c-0.4,0-0.8-0.3-0.8-0.8s0.3-0.8,0.8-0.8h3.1c0.4,0,0.8,0.3,0.8,0.8S27.1,28,26.7,28z M20.6,28h-3.1 c-0.4,0-0.8-0.3-0.8-0.8s0.3-0.8,0.8-0.8h3.1c0.4,0,0.8,0.3,0.8,0.8S21,28,20.6,28z M14.5,28h-3.1c-0.4,0-0.8-0.3-0.8-0.8 s0.3-0.8,0.8-0.8h3.1c0.4,0,0.8,0.3,0.8,0.8S14.9,28,14.5,28z M8.4,28H5.3c-0.4,0-0.8-0.3-0.8-0.8s0.3-0.8,0.8-0.8h3.1 c0.4,0,0.8,0.3,0.8,0.8S8.8,28,8.4,28z"/><path d="M31.3,28h-1.5c-0.4,0-0.8-0.3-0.8-0.8s0.3-0.8,0.8-0.8h0.5L30.1,26c-0.1-0.4,0.1-0.8,0.5-0.9c0.4-0.1,0.8,0.1,0.9,0.5 L32,27c0.1,0.2,0,0.5-0.1,0.7C31.7,27.9,31.5,28,31.3,28z"/><path d="M30,23.8c-0.3,0-0.6-0.2-0.7-0.5l-0.8-2.8c-0.1-0.4,0.1-0.8,0.5-0.9c0.4-0.1,0.8,0.1,0.9,0.5l0.8,2.8 c0.1,0.4-0.1,0.8-0.5,0.9C30.2,23.7,30.1,23.8,30,23.8z M28.4,18.2c-0.3,0-0.6-0.2-0.7-0.5l-0.8-2.8c-0.1-0.4,0.1-0.8,0.5-0.9 c0.4-0.1,0.8,0.1,0.9,0.5l0.8,2.8c0.1,0.4-0.1,0.8-0.5,0.9C28.5,18.1,28.5,18.2,28.4,18.2z M26.8,12.5c-0.3,0-0.6-0.2-0.7-0.5 l-0.8-2.8c-0.1-0.4,0.1-0.8,0.5-0.9c0.4-0.1,0.8,0.1,0.9,0.5l0.8,2.8c0.1,0.4-0.1,0.8-0.5,0.9C26.9,12.5,26.9,12.5,26.8,12.5z"/></svg>